<?xml version="1.0" standalone="no"?><!DOCTYPE svg PUBLIC "-//W3C//DTD SVG 1.1//EN" "http://www.w3.org/Graphics/SVG/1.1/DTD/svg11.dtd"><svg t="1760257844119" class="icon" viewBox="0 0 1024 1024" version="1.1" xmlns="http://www.w3.org/2000/svg" p-id="1978" xmlns:xlink="http://www.w3.org/1999/xlink" width="128" height="128"><path d="M928.87584447 213.60029813L561.98643779 1.77931588c-30.93083443-17.81284661-69.18012524-17.81284661-100.11095966 0L95.12415553 213.60029813c-30.79275037 17.81284661-49.98643779 51.09111045-49.9864378 86.57871962v423.50388042c0 35.62569324 19.19368743 68.76587298 49.9864378 86.7168037l214.30649572 123.72333774 152.44482688 87.95956042c15.46541722 8.97546534 32.7259275 13.39415599 49.98643778 13.39415598 17.26051028 0 34.65910465-4.41869063 49.98643781-13.39415598L928.5996763 810.26161778c30.79275037-17.81284661 49.98643779-51.09111045 49.9864378-86.57871961V300.17901775c0.27616816-35.62569324-18.91751926-68.76587298-49.71026963-86.57871962z m-19.05560335 510.22068412c0 11.04672658-5.93761554 21.26494868-15.46541722 26.78831197L527.46541722 962.43027647c-9.52780169 5.5233633-21.40303275 5.5233633-31.06891852 0l-152.44482686-87.95956042-214.30649574-123.72333774c-9.52780169-5.5233633-15.46541722-15.87966947-15.46541722-26.92639606V300.17901775c0-11.04672658 5.93761554-21.26494868 15.46541722-26.78831197l366.7513226-211.82098225c4.83294288-2.76168163 10.08013802-4.14252247 15.46541721-4.14252248 5.3852792 0 10.77055842 1.38084082 15.46541723 4.14252248l366.75132259 211.68289816c9.52780169 5.5233633 15.46541722 15.87966947 15.46541722 26.92639606v423.6419645z" p-id="1979"></path><path d="M743.43917037 368.7917037l-217.11834074-116.14435555c-8.98085925-4.73315555-19.6608-4.73315555-28.64165926 0L280.56082963 368.7917037c-8.49540741 4.49042963-14.19946667 12.74311111-15.65582222 21.9666963-0.24272592 1.69908148-0.48545185 3.39816297-0.48545186 5.21860741v232.41007407c0 8.00995555 3.2768 15.89854815 8.98085927 21.60260741 2.06317037 2.06317037 4.49042963 3.88361482 7.16041481 5.21860741l217.11834074 116.14435555c4.49042963 2.42725925 9.34494815 3.64088889 14.32082963 3.6408889s9.8304-1.21362963 14.32082963-3.6408889L743.43917037 655.2082963c2.66998518-1.45635555 5.09724445-3.2768 7.16041481-5.33997038 5.70405925-5.70405925 8.98085925-13.47128889 8.98085927-21.48124444V395.97700741c0-1.82044445-0.12136297-3.51952592-0.48545186-5.21860741-1.45635555-9.22358518-7.16041482-17.47626667-15.65582222-21.9666963zM512 313.81428148L664.79597037 395.49155555 512 477.29019259 359.20402963 395.49155555 512 313.81428148z m-186.89896297 132.28562963l155.3445926 83.01226667v164.08272592L325.10103703 610.304V446.09991111z m216.02607408 248.55134814V530.56853333l157.77185186-84.34725925V610.304l-157.77185186 84.34725925z" p-id="1980"></path></svg>