<?xml version="1.0" standalone="no"?><!DOCTYPE svg PUBLIC "-//W3C//DTD SVG 1.1//EN" "http://www.w3.org/Graphics/SVG/1.1/DTD/svg11.dtd"><svg t="1760253520350" class="icon" viewBox="0 0 1024 1024" version="1.1" xmlns="http://www.w3.org/2000/svg" p-id="1628" xmlns:xlink="http://www.w3.org/1999/xlink" width="128" height="128"><path d="M410.78328889 603.31349333c1.45635555 2.40298667 3.2768 4.22343111 4.22343111 5.17006222a531.56977778 531.56977778 0 0 0 76.24021333 75.80330667l25.92312889 20.75306667 25.92312889-20.75306667c1.45635555-1.45635555 39.03032889-31.53009778 75.73048889-76.24021333a29.34556445 29.34556445 0 0 0 4.29624889-5.67978667c52.72007111-68.73998222 118.69297778-168.50033778 133.69344-255.15349333 2.83989333-19.73361778 2.83989333-31.53009778 2.83989333-32.98645334a234.25479111 234.25479111 0 0 0-72.52650667-170.90332444A245.54154667 245.54154667 0 0 0 516.73315555 75.09333333c-64.07964445 0-124.29994667 24.02986667-169.95669333 68.23025778a236.00241778 236.00241778 0 0 0-73.03623111 172.35968c0 0.94663111 0 13.1072 2.91271111 31.53009778 16.01991111 92.76984889 90.29404445 199.59352889 134.13034667 256.10012444zM517.09724445 229.53984c60.73002667 0 109.73639111 47.55000889 109.7363911 106.31395555 0 58.9824-49.51608889 106.45959111-109.7363911 106.45959112-60.73002667 0-109.66357333-47.55000889-109.66357334-106.38677334S456.44003555 229.46702222 517.09724445 229.46702222z" p-id="1629"></path><path d="M854.75328 745.52661333H169.24672c-19.29671111 0-34.36999111-13.68974222-34.36999111-29.19992888 0-15.51018667 14.56355555-29.12711111 34.36999111-29.12711112h107.33340445a29.63683555 29.63683555 0 1 0 0-59.34648888H169.24672C117.47328 627.78026667 75.09333333 666.81059555 75.09333333 716.25386667s42.81685333 88.54641778 94.15338667 88.54641778h685.50656c19.29671111 0 34.36999111 13.61692445 34.36999111 29.1271111 0 15.58300445-14.56355555 29.19992889-34.36999111 29.1999289H254.95324445a29.63683555 29.63683555 0 1 0 0 59.34648888h599.80003555c51.77344 0 94.15338667-39.10314667 94.15338667-88.54641778 0.43690667-49.44327111-42.37994667-88.4736-94.15338667-88.4736z" p-id="1630"></path></svg>