<?xml version="1.0" standalone="no"?><!DOCTYPE svg PUBLIC "-//W3C//DTD SVG 1.1//EN" "http://www.w3.org/Graphics/SVG/1.1/DTD/svg11.dtd"><svg t="1760254130835" class="icon" viewBox="0 0 1024 1024" version="1.1" xmlns="http://www.w3.org/2000/svg" p-id="1432" xmlns:xlink="http://www.w3.org/1999/xlink" width="128" height="128"><path d="M880.64 880.64H143.36c-81.92 0-81.92-80.78336-81.92-80.78336V517.12L266.24 153.6h491.52l204.8 363.52v282.73664C962.56 880.64 880.64 880.64 880.64 880.64zM716.8 234.38336H307.2L163.84 517.12h696.32L716.8 234.38336z m163.84 363.52H143.36V799.8464h737.28V597.90336zM593.92 719.07328H430.08v-40.38656h163.84v40.38656z m102.4-323.1232l20.48 40.38656H307.2l20.48-40.38656h368.64z m-327.68-80.7936h286.72l20.48 40.3968H348.16l20.48-40.38656z" p-id="1433"></path></svg>