<?xml version="1.0" standalone="no"?><!DOCTYPE svg PUBLIC "-//W3C//DTD SVG 1.1//EN" "http://www.w3.org/Graphics/SVG/1.1/DTD/svg11.dtd"><svg t="1781922502105" class="icon" viewBox="0 0 1024 1024" version="1.1" xmlns="http://www.w3.org/2000/svg" p-id="4384" xmlns:xlink="http://www.w3.org/1999/xlink" width="128" height="128"><path d="M993.3312 822.528l-49.3056-127.1808a477.2864 477.2864 0 0 0 44.1344-198.3488c0-262.5536-213.6064-476.16-476.16-476.16a473.7536 473.7536 0 0 0-455.2192 336.0768l78.2848 24.1152A392.2944 392.2944 0 0 1 512 102.7072c217.3952 0 394.24 176.8448 394.24 394.24a394.752 394.752 0 0 1-45.4656 183.9104l1.1264 0.6144-9.6768 3.7376 55.9104 144.1792h-181.8624l-0.6656-1.024c-0.5632 0.3584-1.2288 0.6144-1.8432 1.024h-3.5328v1.9456a392.96 392.96 0 0 1-208.2816 59.8528 393.2672 393.2672 0 0 1-375.04-272.2816l-77.8752 25.2928A474.9824 474.9824 0 0 0 512 973.1072a474.112 474.112 0 0 0 232.3456-61.7984h188.1088a65.28 65.28 0 0 0 60.8768-88.7808z" p-id="4385"></path><path d="M783.36 512c0-149.6576-121.7024-271.36-271.36-271.36S240.64 362.3424 240.64 512s121.7024 271.36 271.36 271.36 271.36-121.7024 271.36-271.36z m-460.8 0c0-104.448 84.992-189.44 189.44-189.44s189.44 84.992 189.44 189.44-84.992 189.44-189.44 189.44-189.44-84.992-189.44-189.44z" p-id="4386"></path><path d="M86.4256 512m-51.2 0a51.2 51.2 0 1 0 102.4 0 51.2 51.2 0 1 0-102.4 0Z" p-id="4387"></path></svg>